%TF.GenerationSoftware,KiCad,Pcbnew,6.0.4-6f826c9f35~116~ubuntu20.04.1*%
%TF.CreationDate,2022-04-27T15:37:50-05:00*%
%TF.ProjectId,lc-led,6c632d6c-6564-42e6-9b69-6361645f7063,rev?*%
%TF.SameCoordinates,Original*%
%TF.FileFunction,Copper,L1,Top*%
%TF.FilePolarity,Positive*%
%FSLAX46Y46*%
G04 Gerber Fmt 4.6, Leading zero omitted, Abs format (unit mm)*
G04 Created by KiCad (PCBNEW 6.0.4-6f826c9f35~116~ubuntu20.04.1) date 2022-04-27 15:37:50*
%MOMM*%
%LPD*%
G01*
G04 APERTURE LIST*
G04 Aperture macros list*
%AMRoundRect*
0 Rectangle with rounded corners*
0 $1 Rounding radius*
0 $2 $3 $4 $5 $6 $7 $8 $9 X,Y pos of 4 corners*
0 Add a 4 corners polygon primitive as box body*
4,1,4,$2,$3,$4,$5,$6,$7,$8,$9,$2,$3,0*
0 Add four circle primitives for the rounded corners*
1,1,$1+$1,$2,$3*
1,1,$1+$1,$4,$5*
1,1,$1+$1,$6,$7*
1,1,$1+$1,$8,$9*
0 Add four rect primitives between the rounded corners*
20,1,$1+$1,$2,$3,$4,$5,0*
20,1,$1+$1,$4,$5,$6,$7,0*
20,1,$1+$1,$6,$7,$8,$9,0*
20,1,$1+$1,$8,$9,$2,$3,0*%
G04 Aperture macros list end*
%TA.AperFunction,SMDPad,CuDef*%
%ADD10R,2.000000X1.100000*%
%TD*%
%TA.AperFunction,SMDPad,CuDef*%
%ADD11R,0.900000X1.200000*%
%TD*%
%TA.AperFunction,SMDPad,CuDef*%
%ADD12RoundRect,0.150000X-0.625000X0.150000X-0.625000X-0.150000X0.625000X-0.150000X0.625000X0.150000X0*%
%TD*%
%TA.AperFunction,SMDPad,CuDef*%
%ADD13RoundRect,0.250000X-0.650000X0.350000X-0.650000X-0.350000X0.650000X-0.350000X0.650000X0.350000X0*%
%TD*%
%TA.AperFunction,SMDPad,CuDef*%
%ADD14RoundRect,0.150000X0.625000X-0.150000X0.625000X0.150000X-0.625000X0.150000X-0.625000X-0.150000X0*%
%TD*%
%TA.AperFunction,SMDPad,CuDef*%
%ADD15RoundRect,0.250000X0.650000X-0.350000X0.650000X0.350000X-0.650000X0.350000X-0.650000X-0.350000X0*%
%TD*%
%TA.AperFunction,Conductor*%
%ADD16C,0.500000*%
%TD*%
%TA.AperFunction,Conductor*%
%ADD17C,0.250000*%
%TD*%
G04 APERTURE END LIST*
D10*
%TO.P,LED2,1,DI*%
%TO.N,Net-(LED1-Pad6)*%
X47185786Y-38900000D03*
%TO.P,LED2,2,CI*%
%TO.N,Net-(LED1-Pad5)*%
X47185786Y-40600000D03*
%TO.P,LED2,3,GND*%
%TO.N,/GND1*%
X47185786Y-42300000D03*
%TO.P,LED2,4,VCC*%
%TO.N,/PWR1*%
X51985786Y-42300000D03*
%TO.P,LED2,5,CO*%
%TO.N,Net-(LED2-Pad5)*%
X51985786Y-40600000D03*
%TO.P,LED2,6,DO*%
%TO.N,Net-(LED2-Pad6)*%
X51985786Y-38900000D03*
%TD*%
D11*
%TO.P,D1,1,K*%
%TO.N,/PWR1*%
X39435786Y-47500000D03*
%TO.P,D1,2,A*%
%TO.N,/5V_1*%
X36135786Y-47500000D03*
%TD*%
D12*
%TO.P,J1,1,Pin_1*%
%TO.N,/GND1*%
X29900000Y-44100000D03*
%TO.P,J1,2,Pin_2*%
%TO.N,/5V_1*%
X29900000Y-45100000D03*
%TO.P,J1,3,Pin_3*%
%TO.N,/D_IN1*%
X29900000Y-46100000D03*
%TO.P,J1,4,Pin_4*%
%TO.N,/C_IN1*%
X29900000Y-47100000D03*
D13*
%TO.P,J1,MP*%
%TO.N,/GND1*%
X26025000Y-42800000D03*
X26025000Y-48400000D03*
%TD*%
D10*
%TO.P,LED1,1,DI*%
%TO.N,/D_IN1*%
X39185786Y-38900000D03*
%TO.P,LED1,2,CI*%
%TO.N,/C_IN1*%
X39185786Y-40600000D03*
%TO.P,LED1,3,GND*%
%TO.N,/GND1*%
X39185786Y-42300000D03*
%TO.P,LED1,4,VCC*%
%TO.N,/PWR1*%
X43985786Y-42300000D03*
%TO.P,LED1,5,CO*%
%TO.N,Net-(LED1-Pad5)*%
X43985786Y-40600000D03*
%TO.P,LED1,6,DO*%
%TO.N,Net-(LED1-Pad6)*%
X43985786Y-38900000D03*
%TD*%
%TO.P,LED3,1,DI*%
%TO.N,Net-(LED2-Pad6)*%
X55085786Y-38900000D03*
%TO.P,LED3,2,CI*%
%TO.N,Net-(LED2-Pad5)*%
X55085786Y-40600000D03*
%TO.P,LED3,3,GND*%
%TO.N,/GND1*%
X55085786Y-42300000D03*
%TO.P,LED3,4,VCC*%
%TO.N,/PWR1*%
X59885786Y-42300000D03*
%TO.P,LED3,5,CO*%
%TO.N,/C_OUT1*%
X59885786Y-40600000D03*
%TO.P,LED3,6,DO*%
%TO.N,/D_OUT1*%
X59885786Y-38900000D03*
%TD*%
D14*
%TO.P,J2,1,Pin_1*%
%TO.N,/GND1*%
X69100000Y-37100000D03*
%TO.P,J2,2,Pin_2*%
%TO.N,/PWR1*%
X69100000Y-36100000D03*
%TO.P,J2,3,Pin_3*%
%TO.N,/D_OUT1*%
X69100000Y-35100000D03*
%TO.P,J2,4,Pin_4*%
%TO.N,/C_OUT1*%
X69100000Y-34100000D03*
D15*
%TO.P,J2,MP*%
%TO.N,/GND1*%
X72975000Y-38400000D03*
X72975000Y-32800000D03*
%TD*%
D16*
%TO.N,/PWR1*%
X59885786Y-42300000D02*
X61100000Y-42300000D01*
X61100000Y-42300000D02*
X67300000Y-36100000D01*
X67300000Y-36100000D02*
X69100000Y-36100000D01*
D17*
%TO.N,/D_OUT1*%
X59885786Y-38900000D02*
X61500000Y-38900000D01*
X61500000Y-38900000D02*
X67200000Y-33200000D01*
X67200000Y-33200000D02*
X70200000Y-33200000D01*
X70200000Y-33200000D02*
X70800000Y-33800000D01*
X70800000Y-33800000D02*
X70800000Y-34500000D01*
X70800000Y-34500000D02*
X70200000Y-35100000D01*
X70200000Y-35100000D02*
X69100000Y-35100000D01*
%TO.N,/C_OUT1*%
X60800000Y-40600000D02*
X67300000Y-34100000D01*
X59885786Y-40600000D02*
X60800000Y-40600000D01*
X67300000Y-34100000D02*
X69100000Y-34100000D01*
%TO.N,/C_IN1*%
X29900000Y-47100000D02*
X30608930Y-47100000D01*
X30608930Y-47100000D02*
X37108930Y-40600000D01*
X37108930Y-40600000D02*
X39185786Y-40600000D01*
%TO.N,/D_IN1*%
X29900000Y-46100000D02*
X30600000Y-46100000D01*
X30600000Y-46100000D02*
X37800000Y-38900000D01*
X37800000Y-38900000D02*
X39185786Y-38900000D01*
D16*
%TO.N,/5V_1*%
X29900000Y-45100000D02*
X28400000Y-45100000D01*
X28400000Y-45100000D02*
X27900000Y-45600000D01*
X27900000Y-45600000D02*
X27900000Y-47700000D01*
X27900000Y-47700000D02*
X28800000Y-48600000D01*
X33200000Y-48600000D02*
X34300000Y-47500000D01*
X28800000Y-48600000D02*
X33200000Y-48600000D01*
X34300000Y-47500000D02*
X36135786Y-47500000D01*
%TO.N,/PWR1*%
X43285786Y-47500000D02*
X43985786Y-46800000D01*
X43985786Y-46800000D02*
X44685786Y-47500000D01*
X52785786Y-47500000D02*
X59585786Y-47500000D01*
X44685786Y-47500000D02*
X51185786Y-47500000D01*
X51985786Y-44900000D02*
X51985786Y-42900000D01*
X51985786Y-46700000D02*
X52785786Y-47500000D01*
X59585786Y-47500000D02*
X59985786Y-47100000D01*
X51185786Y-47500000D02*
X51985786Y-46700000D01*
X51985786Y-46700000D02*
X51985786Y-44900000D01*
X39435786Y-47500000D02*
X43285786Y-47500000D01*
X43985786Y-45200000D02*
X43985786Y-42900000D01*
X59985786Y-47100000D02*
X59985786Y-42900000D01*
X43985786Y-46800000D02*
X43985786Y-45200000D01*
D17*
%TO.N,Net-(LED1-Pad6)*%
X43985786Y-38900000D02*
X47185786Y-38900000D01*
%TO.N,Net-(LED1-Pad5)*%
X43985786Y-40600000D02*
X47185786Y-40600000D01*
%TO.N,Net-(LED2-Pad6)*%
X51985786Y-38900000D02*
X55085786Y-38900000D01*
%TO.N,Net-(LED2-Pad5)*%
X51985786Y-40600000D02*
X55085786Y-40600000D01*
%TD*%
%TA.AperFunction,Conductor*%
%TO.N,/GND1*%
G36*
X72487103Y-30871135D02*
G01*
X72500000Y-30873700D01*
X72512172Y-30871279D01*
X72524579Y-30871279D01*
X72524579Y-30871919D01*
X72535358Y-30871243D01*
X72718394Y-30884334D01*
X72739419Y-30885838D01*
X72757213Y-30888397D01*
X72982958Y-30937505D01*
X73000207Y-30942569D01*
X73216666Y-31023304D01*
X73233013Y-31030769D01*
X73435779Y-31141489D01*
X73450895Y-31151204D01*
X73635838Y-31289651D01*
X73649425Y-31301424D01*
X73812783Y-31464783D01*
X73824556Y-31478370D01*
X73962999Y-31663311D01*
X73972718Y-31678434D01*
X74066584Y-31850337D01*
X74081675Y-31919711D01*
X74056864Y-31986231D01*
X74000028Y-32028778D01*
X73929213Y-32033842D01*
X73880430Y-32011548D01*
X73876699Y-32008752D01*
X73861118Y-32000222D01*
X73741735Y-31955467D01*
X73726490Y-31951842D01*
X73676108Y-31946369D01*
X73669294Y-31946000D01*
X73247115Y-31946000D01*
X73231876Y-31950475D01*
X73230671Y-31951865D01*
X73229000Y-31959548D01*
X73229000Y-33635884D01*
X73233475Y-33651123D01*
X73234865Y-33652328D01*
X73242548Y-33653999D01*
X73669292Y-33653999D01*
X73676110Y-33653630D01*
X73726482Y-33648159D01*
X73741741Y-33644530D01*
X73861118Y-33599778D01*
X73876704Y-33591246D01*
X73977867Y-33515428D01*
X73990429Y-33502866D01*
X74018674Y-33465179D01*
X74075534Y-33422664D01*
X74146352Y-33417639D01*
X74208645Y-33451698D01*
X74242635Y-33514030D01*
X74245500Y-33540744D01*
X74245500Y-37659256D01*
X74225498Y-37727377D01*
X74171842Y-37773870D01*
X74101568Y-37783974D01*
X74036988Y-37754480D01*
X74018674Y-37734821D01*
X73990429Y-37697134D01*
X73977867Y-37684572D01*
X73876704Y-37608754D01*
X73861118Y-37600222D01*
X73741735Y-37555467D01*
X73726490Y-37551842D01*
X73676108Y-37546369D01*
X73669294Y-37546000D01*
X73247115Y-37546000D01*
X73231876Y-37550475D01*
X73230671Y-37551865D01*
X73229000Y-37559548D01*
X73229000Y-39235884D01*
X73233475Y-39251123D01*
X73234865Y-39252328D01*
X73242548Y-39253999D01*
X73669292Y-39253999D01*
X73676110Y-39253630D01*
X73726482Y-39248159D01*
X73741741Y-39244530D01*
X73861118Y-39199778D01*
X73876704Y-39191246D01*
X73977867Y-39115428D01*
X73990429Y-39102866D01*
X74018674Y-39065179D01*
X74075534Y-39022664D01*
X74146352Y-39017639D01*
X74208645Y-39051698D01*
X74242635Y-39114030D01*
X74245500Y-39140744D01*
X74245500Y-48576735D01*
X74243079Y-48601317D01*
X74240514Y-48614212D01*
X74242935Y-48626384D01*
X74242935Y-48638791D01*
X74242295Y-48638791D01*
X74242971Y-48649569D01*
X74232132Y-48801108D01*
X74228375Y-48853635D01*
X74225817Y-48871426D01*
X74211708Y-48936281D01*
X74176707Y-49097170D01*
X74171645Y-49114412D01*
X74090904Y-49330883D01*
X74083441Y-49347223D01*
X73972723Y-49549986D01*
X73963006Y-49565105D01*
X73824559Y-49750048D01*
X73812786Y-49763635D01*
X73649427Y-49926993D01*
X73635840Y-49938766D01*
X73450899Y-50077209D01*
X73435777Y-50086927D01*
X73233014Y-50197645D01*
X73216667Y-50205111D01*
X73053400Y-50266006D01*
X73000207Y-50285846D01*
X72982958Y-50290911D01*
X72757212Y-50340018D01*
X72739418Y-50342576D01*
X72535311Y-50357174D01*
X72524581Y-50356504D01*
X72524581Y-50357149D01*
X72512171Y-50357149D01*
X72500000Y-50354728D01*
X72487103Y-50357293D01*
X72462524Y-50359714D01*
X26537476Y-50359714D01*
X26512897Y-50357293D01*
X26500000Y-50354728D01*
X26487828Y-50357149D01*
X26475421Y-50357149D01*
X26475421Y-50356509D01*
X26464642Y-50357185D01*
X26280752Y-50344033D01*
X26260580Y-50342590D01*
X26242786Y-50340032D01*
X26017038Y-50290924D01*
X25999789Y-50285859D01*
X25942822Y-50264612D01*
X25783327Y-50205124D01*
X25766980Y-50197658D01*
X25766957Y-50197645D01*
X25564214Y-50086939D01*
X25549096Y-50077223D01*
X25364151Y-49938776D01*
X25350565Y-49927004D01*
X25187207Y-49763648D01*
X25175434Y-49750062D01*
X25110896Y-49663850D01*
X25036981Y-49565113D01*
X25027263Y-49549990D01*
X24916546Y-49347229D01*
X24909077Y-49330874D01*
X24903792Y-49316704D01*
X24898728Y-49245889D01*
X24932753Y-49183577D01*
X24995066Y-49149552D01*
X25065881Y-49154618D01*
X25097413Y-49171847D01*
X25123296Y-49191246D01*
X25138882Y-49199778D01*
X25258265Y-49244533D01*
X25273510Y-49248158D01*
X25323892Y-49253631D01*
X25330706Y-49254000D01*
X25752885Y-49254000D01*
X25768124Y-49249525D01*
X25769329Y-49248135D01*
X25771000Y-49240452D01*
X25771000Y-49235884D01*
X26279000Y-49235884D01*
X26283475Y-49251123D01*
X26284865Y-49252328D01*
X26292548Y-49253999D01*
X26719292Y-49253999D01*
X26726110Y-49253630D01*
X26776482Y-49248159D01*
X26791741Y-49244530D01*
X26911118Y-49199778D01*
X26926704Y-49191246D01*
X27027867Y-49115428D01*
X27040428Y-49102867D01*
X27116246Y-49001704D01*
X27124778Y-48986118D01*
X27169533Y-48866735D01*
X27173158Y-48851490D01*
X27178631Y-48801108D01*
X27179000Y-48794294D01*
X27179000Y-48672115D01*
X27174525Y-48656876D01*
X27173135Y-48655671D01*
X27165452Y-48654000D01*
X26297115Y-48654000D01*
X26281876Y-48658475D01*
X26280671Y-48659865D01*
X26279000Y-48667548D01*
X26279000Y-49235884D01*
X25771000Y-49235884D01*
X25771000Y-48127885D01*
X26279000Y-48127885D01*
X26283475Y-48143124D01*
X26284865Y-48144329D01*
X26292548Y-48146000D01*
X27160884Y-48146000D01*
X27176123Y-48141525D01*
X27177328Y-48140135D01*
X27178999Y-48132452D01*
X27178999Y-48005708D01*
X27178630Y-47998890D01*
X27173159Y-47948518D01*
X27169530Y-47933259D01*
X27124778Y-47813882D01*
X27116246Y-47798296D01*
X27040428Y-47697133D01*
X27027867Y-47684572D01*
X26926704Y-47608754D01*
X26911118Y-47600222D01*
X26791735Y-47555467D01*
X26776490Y-47551842D01*
X26726108Y-47546369D01*
X26719294Y-47546000D01*
X26297115Y-47546000D01*
X26281876Y-47550475D01*
X26280671Y-47551865D01*
X26279000Y-47559548D01*
X26279000Y-48127885D01*
X25771000Y-48127885D01*
X25771000Y-47564116D01*
X25766525Y-47548877D01*
X25765135Y-47547672D01*
X25757452Y-47546001D01*
X25330708Y-47546001D01*
X25323890Y-47546370D01*
X25273518Y-47551841D01*
X25258259Y-47555470D01*
X25138882Y-47600222D01*
X25123296Y-47608754D01*
X25022133Y-47684572D01*
X25009571Y-47697134D01*
X24981326Y-47734821D01*
X24924466Y-47777336D01*
X24853648Y-47782361D01*
X24791355Y-47748302D01*
X24757365Y-47685970D01*
X24754500Y-47659256D01*
X24754500Y-45634667D01*
X27391493Y-45634667D01*
X27393366Y-45643442D01*
X27393959Y-45652138D01*
X27395500Y-45666738D01*
X27395500Y-47629376D01*
X27394159Y-47641381D01*
X27394655Y-47641421D01*
X27393935Y-47650368D01*
X27391954Y-47659124D01*
X27394312Y-47697133D01*
X27395258Y-47712382D01*
X27395500Y-47720184D01*
X27395500Y-47736226D01*
X27396135Y-47740657D01*
X27396135Y-47740662D01*
X27396965Y-47746453D01*
X27397996Y-47756514D01*
X27400902Y-47803359D01*
X27403949Y-47811799D01*
X27404630Y-47815089D01*
X27408582Y-47830938D01*
X27409527Y-47834168D01*
X27410799Y-47843052D01*
X27414514Y-47851223D01*
X27430218Y-47885763D01*
X27434030Y-47895128D01*
X27446922Y-47930837D01*
X27446924Y-47930840D01*
X27449972Y-47939284D01*
X27455268Y-47946533D01*
X27456840Y-47949490D01*
X27465093Y-47963614D01*
X27466898Y-47966437D01*
X27470612Y-47974605D01*
X27476469Y-47981402D01*
X27476470Y-47981404D01*
X27490597Y-47997798D01*
X27499825Y-48008507D01*
X27501243Y-48010153D01*
X27507525Y-48018064D01*
X27515473Y-48028944D01*
X27526335Y-48039806D01*
X27532693Y-48046652D01*
X27564944Y-48084082D01*
X27572479Y-48088966D01*
X27579051Y-48094699D01*
X27590455Y-48103926D01*
X28393323Y-48906794D01*
X28400865Y-48916234D01*
X28401245Y-48915911D01*
X28407063Y-48922747D01*
X28411853Y-48930339D01*
X28418581Y-48936281D01*
X28451859Y-48965671D01*
X28457546Y-48971017D01*
X28468880Y-48982351D01*
X28472463Y-48985036D01*
X28472465Y-48985038D01*
X28477155Y-48988553D01*
X28484998Y-48994938D01*
X28520170Y-49026001D01*
X28528292Y-49029814D01*
X28531093Y-49031654D01*
X28545088Y-49040063D01*
X28548051Y-49041685D01*
X28555236Y-49047070D01*
X28563646Y-49050223D01*
X28563648Y-49050224D01*
X28599182Y-49063546D01*
X28608495Y-49067470D01*
X28650982Y-49087417D01*
X28659856Y-49088799D01*
X28663083Y-49089785D01*
X28678846Y-49093920D01*
X28682140Y-49094644D01*
X28690552Y-49097798D01*
X28699510Y-49098464D01*
X28699511Y-49098464D01*
X28737350Y-49101276D01*
X28747374Y-49102426D01*
X28760697Y-49104500D01*
X28776062Y-49104500D01*
X28785399Y-49104846D01*
X28834666Y-49108507D01*
X28843441Y-49106634D01*
X28852137Y-49106041D01*
X28866737Y-49104500D01*
X33129376Y-49104500D01*
X33141381Y-49105841D01*
X33141421Y-49105345D01*
X33150368Y-49106065D01*
X33159124Y-49108046D01*
X33212382Y-49104742D01*
X33220184Y-49104500D01*
X33236226Y-49104500D01*
X33240657Y-49103865D01*
X33240662Y-49103865D01*
X33244687Y-49103288D01*
X33246457Y-49103035D01*
X33256514Y-49102004D01*
X33278976Y-49100611D01*
X33294400Y-49099654D01*
X33294402Y-49099654D01*
X33303359Y-49099098D01*
X33311799Y-49096051D01*
X33315089Y-49095370D01*
X33330938Y-49091418D01*
X33334168Y-49090473D01*
X33343052Y-49089201D01*
X33385763Y-49069782D01*
X33395128Y-49065970D01*
X33430837Y-49053078D01*
X33430840Y-49053076D01*
X33439284Y-49050028D01*
X33446533Y-49044732D01*
X33449490Y-49043160D01*
X33463614Y-49034907D01*
X33466437Y-49033102D01*
X33474605Y-49029388D01*
X33481402Y-49023531D01*
X33481404Y-49023530D01*
X33510153Y-48998757D01*
X33518064Y-48992475D01*
X33528944Y-48984527D01*
X33539806Y-48973665D01*
X33546653Y-48967307D01*
X33577282Y-48940915D01*
X33584082Y-48935056D01*
X33588966Y-48927521D01*
X33594699Y-48920949D01*
X33603926Y-48909545D01*
X34472066Y-48041405D01*
X34534378Y-48007379D01*
X34561161Y-48004500D01*
X35305822Y-48004500D01*
X35373943Y-48024502D01*
X35420436Y-48078158D01*
X35431215Y-48118147D01*
X35431287Y-48118877D01*
X35431287Y-48125066D01*
X35446052Y-48199301D01*
X35502302Y-48283484D01*
X35586485Y-48339734D01*
X35660719Y-48354500D01*
X36135709Y-48354500D01*
X36610852Y-48354499D01*
X36646604Y-48347388D01*
X36672912Y-48342156D01*
X36672914Y-48342155D01*
X36685087Y-48339734D01*
X36695407Y-48332839D01*
X36695408Y-48332838D01*
X36758954Y-48290377D01*
X36769270Y-48283484D01*
X36825520Y-48199301D01*
X36840286Y-48125067D01*
X36840285Y-46874934D01*
X36840285Y-46874933D01*
X38731286Y-46874933D01*
X38731287Y-48125066D01*
X38746052Y-48199301D01*
X38802302Y-48283484D01*
X38886485Y-48339734D01*
X38960719Y-48354500D01*
X39435709Y-48354500D01*
X39910852Y-48354499D01*
X39946604Y-48347388D01*
X39972912Y-48342156D01*
X39972914Y-48342155D01*
X39985087Y-48339734D01*
X39995407Y-48332839D01*
X39995408Y-48332838D01*
X40058954Y-48290377D01*
X40069270Y-48283484D01*
X40125520Y-48199301D01*
X40140286Y-48125067D01*
X40140286Y-48118877D01*
X40140358Y-48118149D01*
X40166941Y-48052317D01*
X40224895Y-48011308D01*
X40265751Y-48004500D01*
X43215162Y-48004500D01*
X43227167Y-48005841D01*
X43227207Y-48005345D01*
X43236154Y-48006065D01*
X43244910Y-48008046D01*
X43298168Y-48004742D01*
X43305970Y-48004500D01*
X43322012Y-48004500D01*
X43326443Y-48003865D01*
X43326448Y-48003865D01*
X43330473Y-48003288D01*
X43332243Y-48003035D01*
X43342300Y-48002004D01*
X43364762Y-48000611D01*
X43380186Y-47999654D01*
X43380188Y-47999654D01*
X43389145Y-47999098D01*
X43397585Y-47996051D01*
X43400875Y-47995370D01*
X43416724Y-47991418D01*
X43419954Y-47990473D01*
X43428838Y-47989201D01*
X43471549Y-47969782D01*
X43480914Y-47965970D01*
X43516623Y-47953078D01*
X43516626Y-47953076D01*
X43525070Y-47950028D01*
X43532319Y-47944732D01*
X43535276Y-47943160D01*
X43549400Y-47934907D01*
X43552223Y-47933102D01*
X43560391Y-47929388D01*
X43567188Y-47923531D01*
X43567190Y-47923530D01*
X43595939Y-47898757D01*
X43603850Y-47892475D01*
X43614730Y-47884527D01*
X43625592Y-47873665D01*
X43632439Y-47867307D01*
X43663068Y-47840915D01*
X43669868Y-47835056D01*
X43674752Y-47827521D01*
X43680485Y-47820949D01*
X43689712Y-47809545D01*
X43896691Y-47602566D01*
X43959003Y-47568540D01*
X44029818Y-47573605D01*
X44074881Y-47602566D01*
X44279109Y-47806794D01*
X44286651Y-47816234D01*
X44287031Y-47815911D01*
X44292849Y-47822747D01*
X44297639Y-47830339D01*
X44304367Y-47836281D01*
X44337645Y-47865671D01*
X44343332Y-47871017D01*
X44354666Y-47882351D01*
X44358252Y-47885038D01*
X44358257Y-47885043D01*
X44362945Y-47888557D01*
X44370783Y-47894938D01*
X44399229Y-47920060D01*
X44405956Y-47926001D01*
X44414079Y-47929815D01*
X44416890Y-47931661D01*
X44430889Y-47940072D01*
X44433838Y-47941686D01*
X44441021Y-47947070D01*
X44459107Y-47953850D01*
X44484960Y-47963542D01*
X44494280Y-47967469D01*
X44523961Y-47981404D01*
X44536768Y-47987417D01*
X44545639Y-47988798D01*
X44548861Y-47989783D01*
X44564632Y-47993920D01*
X44567926Y-47994644D01*
X44576338Y-47997798D01*
X44585296Y-47998464D01*
X44585297Y-47998464D01*
X44623136Y-48001276D01*
X44633160Y-48002426D01*
X44646483Y-48004500D01*
X44661848Y-48004500D01*
X44671185Y-48004846D01*
X44720452Y-48008507D01*
X44729227Y-48006634D01*
X44737923Y-48006041D01*
X44752523Y-48004500D01*
X51115162Y-48004500D01*
X51127167Y-48005841D01*
X51127207Y-48005345D01*
X51136154Y-48006065D01*
X51144910Y-48008046D01*
X51198168Y-48004742D01*
X51205970Y-48004500D01*
X51222012Y-48004500D01*
X51226443Y-48003865D01*
X51226448Y-48003865D01*
X51230473Y-48003288D01*
X51232243Y-48003035D01*
X51242300Y-48002004D01*
X51264762Y-48000611D01*
X51280186Y-47999654D01*
X51280188Y-47999654D01*
X51289145Y-47999098D01*
X51297585Y-47996051D01*
X51300875Y-47995370D01*
X51316724Y-47991418D01*
X51319954Y-47990473D01*
X51328838Y-47989201D01*
X51371549Y-47969782D01*
X51380914Y-47965970D01*
X51416623Y-47953078D01*
X51416626Y-47953076D01*
X51425070Y-47950028D01*
X51432319Y-47944732D01*
X51435276Y-47943160D01*
X51449400Y-47934907D01*
X51452223Y-47933102D01*
X51460391Y-47929388D01*
X51467188Y-47923531D01*
X51467190Y-47923530D01*
X51495939Y-47898757D01*
X51503850Y-47892475D01*
X51514730Y-47884527D01*
X51525592Y-47873665D01*
X51532439Y-47867307D01*
X51563068Y-47840915D01*
X51569868Y-47835056D01*
X51574752Y-47827521D01*
X51580485Y-47820949D01*
X51589712Y-47809545D01*
X51896691Y-47502566D01*
X51959003Y-47468540D01*
X52029818Y-47473605D01*
X52074881Y-47502566D01*
X52379109Y-47806794D01*
X52386651Y-47816234D01*
X52387031Y-47815911D01*
X52392849Y-47822747D01*
X52397639Y-47830339D01*
X52404367Y-47836281D01*
X52437645Y-47865671D01*
X52443332Y-47871017D01*
X52454666Y-47882351D01*
X52458249Y-47885036D01*
X52458251Y-47885038D01*
X52462941Y-47888553D01*
X52470784Y-47894938D01*
X52505956Y-47926001D01*
X52514078Y-47929814D01*
X52516879Y-47931654D01*
X52530874Y-47940063D01*
X52533837Y-47941685D01*
X52541022Y-47947070D01*
X52549432Y-47950223D01*
X52549434Y-47950224D01*
X52584968Y-47963546D01*
X52594279Y-47967469D01*
X52636768Y-47987417D01*
X52645642Y-47988799D01*
X52648869Y-47989785D01*
X52664652Y-47993925D01*
X52667930Y-47994646D01*
X52676338Y-47997798D01*
X52685302Y-47998464D01*
X52723143Y-48001276D01*
X52733190Y-48002430D01*
X52741672Y-48003751D01*
X52741675Y-48003751D01*
X52746483Y-48004500D01*
X52761848Y-48004500D01*
X52771186Y-48004846D01*
X52820453Y-48008507D01*
X52829228Y-48006634D01*
X52837924Y-48006041D01*
X52852524Y-48004500D01*
X59515162Y-48004500D01*
X59527167Y-48005841D01*
X59527207Y-48005345D01*
X59536154Y-48006065D01*
X59544910Y-48008046D01*
X59598168Y-48004742D01*
X59605970Y-48004500D01*
X59622012Y-48004500D01*
X59626443Y-48003865D01*
X59626448Y-48003865D01*
X59630473Y-48003288D01*
X59632243Y-48003035D01*
X59642300Y-48002004D01*
X59664762Y-48000611D01*
X59680186Y-47999654D01*
X59680188Y-47999654D01*
X59689145Y-47999098D01*
X59697585Y-47996051D01*
X59700875Y-47995370D01*
X59716724Y-47991418D01*
X59719954Y-47990473D01*
X59728838Y-47989201D01*
X59771549Y-47969782D01*
X59780914Y-47965970D01*
X59816623Y-47953078D01*
X59816626Y-47953076D01*
X59825070Y-47950028D01*
X59832319Y-47944732D01*
X59835276Y-47943160D01*
X59849400Y-47934907D01*
X59852223Y-47933102D01*
X59860391Y-47929388D01*
X59867188Y-47923531D01*
X59867190Y-47923530D01*
X59895939Y-47898757D01*
X59903850Y-47892475D01*
X59914730Y-47884527D01*
X59925592Y-47873665D01*
X59932439Y-47867307D01*
X59963068Y-47840915D01*
X59969868Y-47835056D01*
X59974752Y-47827521D01*
X59980485Y-47820949D01*
X59989712Y-47809545D01*
X60292580Y-47506677D01*
X60302020Y-47499135D01*
X60301697Y-47498755D01*
X60308533Y-47492937D01*
X60316125Y-47488147D01*
X60351458Y-47448140D01*
X60356803Y-47442454D01*
X60368137Y-47431120D01*
X60370824Y-47427534D01*
X60370829Y-47427529D01*
X60374343Y-47422841D01*
X60380724Y-47415003D01*
X60405846Y-47386557D01*
X60411787Y-47379830D01*
X60415601Y-47371707D01*
X60417447Y-47368896D01*
X60425858Y-47354897D01*
X60427472Y-47351948D01*
X60432856Y-47344765D01*
X60449328Y-47300826D01*
X60453255Y-47291506D01*
X60469388Y-47257144D01*
X60469388Y-47257143D01*
X60473203Y-47249018D01*
X60474584Y-47240147D01*
X60475569Y-47236925D01*
X60479706Y-47221154D01*
X60480430Y-47217860D01*
X60483584Y-47209448D01*
X60485695Y-47181051D01*
X60487062Y-47162650D01*
X60488212Y-47152626D01*
X60490286Y-47139303D01*
X60490286Y-47123938D01*
X60490632Y-47114601D01*
X60493628Y-47074282D01*
X60494293Y-47065334D01*
X60492420Y-47056559D01*
X60491827Y-47047863D01*
X60490286Y-47033263D01*
X60490286Y-45614214D01*
X67140448Y-45614214D01*
X67140718Y-45618333D01*
X67156634Y-45861161D01*
X67160634Y-45922197D01*
X67161436Y-45926230D01*
X67161437Y-45926236D01*
X67220042Y-46220861D01*
X67220848Y-46224911D01*
X67222175Y-46228820D01*
X67222176Y-46228824D01*
X67308080Y-46481890D01*
X67320058Y-46517175D01*
X67343949Y-46565621D01*
X67404840Y-46689095D01*
X67456568Y-46793990D01*
X67458862Y-46797423D01*
X67625333Y-47046563D01*
X67628042Y-47050618D01*
X67831545Y-47282669D01*
X68063596Y-47486172D01*
X68067022Y-47488461D01*
X68067027Y-47488465D01*
X68180247Y-47564116D01*
X68320224Y-47657646D01*
X68323923Y-47659470D01*
X68323928Y-47659473D01*
X68466132Y-47729600D01*
X68597039Y-47794156D01*
X68600944Y-47795481D01*
X68600945Y-47795482D01*
X68885390Y-47892038D01*
X68885394Y-47892039D01*
X68889303Y-47893366D01*
X68893347Y-47894170D01*
X68893353Y-47894172D01*
X69187978Y-47952777D01*
X69187984Y-47952778D01*
X69192017Y-47953580D01*
X69196122Y-47953849D01*
X69196129Y-47953850D01*
X69495881Y-47973496D01*
X69500000Y-47973766D01*
X69504119Y-47973496D01*
X69803871Y-47953850D01*
X69803878Y-47953849D01*
X69807983Y-47953580D01*
X69812016Y-47952778D01*
X69812022Y-47952777D01*
X70106647Y-47894172D01*
X70106653Y-47894170D01*
X70110697Y-47893366D01*
X70114606Y-47892039D01*
X70114610Y-47892038D01*
X70399055Y-47795482D01*
X70399056Y-47795481D01*
X70402961Y-47794156D01*
X70533868Y-47729600D01*
X70676072Y-47659473D01*
X70676077Y-47659470D01*
X70679776Y-47657646D01*
X70819753Y-47564116D01*
X70932973Y-47488465D01*
X70932978Y-47488461D01*
X70936404Y-47486172D01*
X71168455Y-47282669D01*
X71371958Y-47050618D01*
X71374668Y-47046563D01*
X71541138Y-46797423D01*
X71543432Y-46793990D01*
X71595161Y-46689095D01*
X71656051Y-46565621D01*
X71679942Y-46517175D01*
X71691920Y-46481890D01*
X71777824Y-46228824D01*
X71777825Y-46228820D01*
X71779152Y-46224911D01*
X71779958Y-46220861D01*
X71838563Y-45926236D01*
X71838564Y-45926230D01*
X71839366Y-45922197D01*
X71843367Y-45861161D01*
X71859282Y-45618333D01*
X71859552Y-45614214D01*
X71857051Y-45576062D01*
X71839636Y-45310343D01*
X71839635Y-45310336D01*
X71839366Y-45306231D01*
X71834388Y-45281201D01*
X71779958Y-45007567D01*
X71779956Y-45007561D01*
X71779152Y-45003517D01*
X71757118Y-44938605D01*
X71681268Y-44715159D01*
X71681267Y-44715158D01*
X71679942Y-44711253D01*
X71574498Y-44497434D01*
X71545259Y-44438142D01*
X71545256Y-44438137D01*
X71543432Y-44434438D01*
X71371958Y-44177810D01*
X71168455Y-43945759D01*
X70936404Y-43742256D01*
X70932978Y-43739967D01*
X70932973Y-43739963D01*
X70683209Y-43573076D01*
X70679776Y-43570782D01*
X70676077Y-43568958D01*
X70676072Y-43568955D01*
X70465634Y-43465179D01*
X70402961Y-43434272D01*
X70399055Y-43432946D01*
X70114610Y-43336390D01*
X70114606Y-43336389D01*
X70110697Y-43335062D01*
X70106653Y-43334258D01*
X70106647Y-43334256D01*
X69812022Y-43275651D01*
X69812016Y-43275650D01*
X69807983Y-43274848D01*
X69803878Y-43274579D01*
X69803871Y-43274578D01*
X69504119Y-43254932D01*
X69500000Y-43254662D01*
X69495881Y-43254932D01*
X69196129Y-43274578D01*
X69196122Y-43274579D01*
X69192017Y-43274848D01*
X69187984Y-43275650D01*
X69187978Y-43275651D01*
X68893353Y-43334256D01*
X68893347Y-43334258D01*
X68889303Y-43335062D01*
X68885394Y-43336389D01*
X68885390Y-43336390D01*
X68600945Y-43432946D01*
X68597039Y-43434272D01*
X68534366Y-43465179D01*
X68323928Y-43568955D01*
X68323923Y-43568958D01*
X68320224Y-43570782D01*
X68316791Y-43573076D01*
X68067027Y-43739963D01*
X68067022Y-43739967D01*
X68063596Y-43742256D01*
X67831545Y-43945759D01*
X67628042Y-44177810D01*
X67456568Y-44434438D01*
X67454744Y-44438137D01*
X67454741Y-44438142D01*
X67425502Y-44497434D01*
X67320058Y-44711253D01*
X67318733Y-44715158D01*
X67318732Y-44715159D01*
X67242883Y-44938605D01*
X67220848Y-45003517D01*
X67220044Y-45007561D01*
X67220042Y-45007567D01*
X67165613Y-45281201D01*
X67160634Y-45306231D01*
X67160365Y-45310336D01*
X67160364Y-45310343D01*
X67154231Y-45403914D01*
X67144247Y-45556245D01*
X67140448Y-45614214D01*
X60490286Y-45614214D01*
X60490286Y-43230499D01*
X60510288Y-43162378D01*
X60563944Y-43115885D01*
X60616286Y-43104499D01*
X60910852Y-43104499D01*
X60946604Y-43097388D01*
X60972912Y-43092156D01*
X60972914Y-43092155D01*
X60985087Y-43089734D01*
X60995407Y-43082839D01*
X60995408Y-43082838D01*
X61058954Y-43040377D01*
X61069270Y-43033484D01*
X61125520Y-42949301D01*
X61137452Y-42889314D01*
X61170359Y-42826404D01*
X61225665Y-42792960D01*
X61234166Y-42790474D01*
X61243052Y-42789201D01*
X61285763Y-42769782D01*
X61295128Y-42765970D01*
X61330837Y-42753078D01*
X61330840Y-42753076D01*
X61339284Y-42750028D01*
X61346533Y-42744732D01*
X61349490Y-42743160D01*
X61363614Y-42734907D01*
X61366437Y-42733102D01*
X61374605Y-42729388D01*
X61381402Y-42723531D01*
X61381404Y-42723530D01*
X61410153Y-42698757D01*
X61418064Y-42692475D01*
X61428944Y-42684527D01*
X61439806Y-42673665D01*
X61446653Y-42667307D01*
X61477282Y-42640915D01*
X61484082Y-42635056D01*
X61488966Y-42627521D01*
X61494699Y-42620949D01*
X61503926Y-42609545D01*
X65319179Y-38794292D01*
X71821001Y-38794292D01*
X71821370Y-38801110D01*
X71826841Y-38851482D01*
X71830470Y-38866741D01*
X71875222Y-38986118D01*
X71883754Y-39001704D01*
X71959572Y-39102867D01*
X71972133Y-39115428D01*
X72073296Y-39191246D01*
X72088882Y-39199778D01*
X72208265Y-39244533D01*
X72223510Y-39248158D01*
X72273892Y-39253631D01*
X72280706Y-39254000D01*
X72702885Y-39254000D01*
X72718124Y-39249525D01*
X72719329Y-39248135D01*
X72721000Y-39240452D01*
X72721000Y-38672115D01*
X72716525Y-38656876D01*
X72715135Y-38655671D01*
X72707452Y-38654000D01*
X71839116Y-38654000D01*
X71823877Y-38658475D01*
X71822672Y-38659865D01*
X71821001Y-38667548D01*
X71821001Y-38794292D01*
X65319179Y-38794292D01*
X65985586Y-38127885D01*
X71821000Y-38127885D01*
X71825475Y-38143124D01*
X71826865Y-38144329D01*
X71834548Y-38146000D01*
X72702885Y-38146000D01*
X72718124Y-38141525D01*
X72719329Y-38140135D01*
X72721000Y-38132452D01*
X72721000Y-37564116D01*
X72716525Y-37548877D01*
X72715135Y-37547672D01*
X72707452Y-37546001D01*
X72280708Y-37546001D01*
X72273890Y-37546370D01*
X72223518Y-37551841D01*
X72208259Y-37555470D01*
X72088882Y-37600222D01*
X72073296Y-37608754D01*
X71972133Y-37684572D01*
X71959572Y-37697133D01*
X71883754Y-37798296D01*
X71875222Y-37813882D01*
X71830467Y-37933265D01*
X71826842Y-37948510D01*
X71821369Y-37998892D01*
X71821000Y-38005706D01*
X71821000Y-38127885D01*
X65985586Y-38127885D01*
X66743198Y-37370273D01*
X68085625Y-37370273D01*
X68090486Y-37385234D01*
X68139583Y-37481593D01*
X68151094Y-37497436D01*
X68227564Y-37573906D01*
X68243407Y-37585417D01*
X68339768Y-37634515D01*
X68358392Y-37640567D01*
X68438315Y-37653225D01*
X68448158Y-37654000D01*
X68827885Y-37654000D01*
X68843124Y-37649525D01*
X68844329Y-37648135D01*
X68846000Y-37640452D01*
X68846000Y-37635884D01*
X69354000Y-37635884D01*
X69358475Y-37651123D01*
X69359865Y-37652328D01*
X69367548Y-37653999D01*
X69751840Y-37653999D01*
X69761687Y-37653224D01*
X69841607Y-37640567D01*
X69860233Y-37634515D01*
X69956593Y-37585417D01*
X69972436Y-37573906D01*
X70048906Y-37497436D01*
X70060417Y-37481593D01*
X70109516Y-37385231D01*
X70114479Y-37369955D01*
X70112962Y-37358212D01*
X70098988Y-37354000D01*
X69372115Y-37354000D01*
X69356876Y-37358475D01*
X69355671Y-37359865D01*
X69354000Y-37367548D01*
X69354000Y-37635884D01*
X68846000Y-37635884D01*
X68846000Y-37372115D01*
X68841525Y-37356876D01*
X68840135Y-37355671D01*
X68832452Y-37354000D01*
X68100552Y-37354000D01*
X68087316Y-37357887D01*
X68085625Y-37370273D01*
X66743198Y-37370273D01*
X67472066Y-36641405D01*
X67534378Y-36607379D01*
X67561161Y-36604500D01*
X67992008Y-36604500D01*
X68060129Y-36624502D01*
X68106622Y-36678158D01*
X68116726Y-36748432D01*
X68104275Y-36787703D01*
X68090484Y-36814769D01*
X68085521Y-36830045D01*
X68087038Y-36841788D01*
X68101012Y-36846000D01*
X70099448Y-36846000D01*
X70112684Y-36842113D01*
X70114375Y-36829727D01*
X70109514Y-36814766D01*
X70060417Y-36718407D01*
X70048906Y-36702564D01*
X70035791Y-36689449D01*
X70001765Y-36627137D01*
X70006830Y-36556322D01*
X70035788Y-36511261D01*
X70056326Y-36490723D01*
X70114498Y-36376555D01*
X70129500Y-36281834D01*
X70129500Y-35918166D01*
X70114498Y-35823445D01*
X70056326Y-35709277D01*
X70041644Y-35694595D01*
X70007618Y-35632283D01*
X70012683Y-35561468D01*
X70055230Y-35504632D01*
X70121750Y-35479821D01*
X70130739Y-35479500D01*
X70146080Y-35479500D01*
X70170028Y-35482049D01*
X70171693Y-35482128D01*
X70181876Y-35484320D01*
X70192217Y-35483096D01*
X70215223Y-35480373D01*
X70221154Y-35480023D01*
X70221146Y-35479928D01*
X70226324Y-35479500D01*
X70231524Y-35479500D01*
X70236653Y-35478646D01*
X70236656Y-35478646D01*
X70250565Y-35476331D01*
X70256443Y-35475494D01*
X70297001Y-35470694D01*
X70297002Y-35470694D01*
X70307341Y-35469470D01*
X70315593Y-35465507D01*
X70324626Y-35464004D01*
X70333795Y-35459057D01*
X70333797Y-35459056D01*
X70369732Y-35439666D01*
X70375025Y-35436969D01*
X70414082Y-35418215D01*
X70414086Y-35418212D01*
X70421232Y-35414781D01*
X70425508Y-35411186D01*
X70427431Y-35409263D01*
X70429363Y-35407491D01*
X70429442Y-35407448D01*
X70429555Y-35407572D01*
X70430095Y-35407096D01*
X70435814Y-35404010D01*
X70472417Y-35364413D01*
X70475846Y-35360848D01*
X71030216Y-34806478D01*
X71048964Y-34791336D01*
X71050189Y-34790221D01*
X71058940Y-34784571D01*
X71065387Y-34776393D01*
X71065389Y-34776391D01*
X71079729Y-34758200D01*
X71083678Y-34753756D01*
X71083604Y-34753694D01*
X71086957Y-34749737D01*
X71090638Y-34746056D01*
X71101865Y-34730346D01*
X71105421Y-34725609D01*
X71116739Y-34711253D01*
X71137156Y-34685353D01*
X71140189Y-34676716D01*
X71145513Y-34669266D01*
X71160202Y-34620151D01*
X71162034Y-34614514D01*
X71176390Y-34573633D01*
X71176390Y-34573632D01*
X71179018Y-34566149D01*
X71179500Y-34560584D01*
X71179500Y-34557876D01*
X71179614Y-34555242D01*
X71179643Y-34555144D01*
X71179807Y-34555151D01*
X71179851Y-34554447D01*
X71181713Y-34548222D01*
X71179597Y-34494365D01*
X71179500Y-34489418D01*
X71179500Y-33853920D01*
X71182049Y-33829972D01*
X71182128Y-33828307D01*
X71184320Y-33818124D01*
X71180373Y-33784777D01*
X71180023Y-33778846D01*
X71179928Y-33778854D01*
X71179500Y-33773676D01*
X71179500Y-33768476D01*
X71178646Y-33763344D01*
X71176331Y-33749435D01*
X71175494Y-33743557D01*
X71170694Y-33702999D01*
X71170694Y-33702998D01*
X71169470Y-33692659D01*
X71165507Y-33684407D01*
X71164004Y-33675374D01*
X71147362Y-33644530D01*
X71139666Y-33630268D01*
X71136969Y-33624975D01*
X71118215Y-33585918D01*
X71118212Y-33585914D01*
X71114781Y-33578768D01*
X71111186Y-33574492D01*
X71109263Y-33572569D01*
X71107491Y-33570637D01*
X71107448Y-33570558D01*
X71107572Y-33570445D01*
X71107096Y-33569905D01*
X71104010Y-33564186D01*
X71078651Y-33540744D01*
X71064414Y-33527584D01*
X71060848Y-33524154D01*
X70730986Y-33194292D01*
X71821001Y-33194292D01*
X71821370Y-33201110D01*
X71826841Y-33251482D01*
X71830470Y-33266741D01*
X71875222Y-33386118D01*
X71883754Y-33401704D01*
X71959572Y-33502867D01*
X71972133Y-33515428D01*
X72073296Y-33591246D01*
X72088882Y-33599778D01*
X72208265Y-33644533D01*
X72223510Y-33648158D01*
X72273892Y-33653631D01*
X72280706Y-33654000D01*
X72702885Y-33654000D01*
X72718124Y-33649525D01*
X72719329Y-33648135D01*
X72721000Y-33640452D01*
X72721000Y-33072115D01*
X72716525Y-33056876D01*
X72715135Y-33055671D01*
X72707452Y-33054000D01*
X71839116Y-33054000D01*
X71823877Y-33058475D01*
X71822672Y-33059865D01*
X71821001Y-33067548D01*
X71821001Y-33194292D01*
X70730986Y-33194292D01*
X70506478Y-32969784D01*
X70491336Y-32951036D01*
X70490221Y-32949811D01*
X70484571Y-32941060D01*
X70476393Y-32934613D01*
X70476391Y-32934611D01*
X70458200Y-32920271D01*
X70453759Y-32916325D01*
X70453697Y-32916398D01*
X70449733Y-32913039D01*
X70446056Y-32909362D01*
X70430308Y-32898108D01*
X70425638Y-32894602D01*
X70385353Y-32862844D01*
X70376719Y-32859812D01*
X70369266Y-32854486D01*
X70320150Y-32839797D01*
X70314508Y-32837964D01*
X70273633Y-32823610D01*
X70273632Y-32823610D01*
X70266149Y-32820982D01*
X70260584Y-32820500D01*
X70257876Y-32820500D01*
X70255242Y-32820386D01*
X70255144Y-32820357D01*
X70255151Y-32820193D01*
X70254447Y-32820149D01*
X70248222Y-32818287D01*
X70194365Y-32820403D01*
X70189418Y-32820500D01*
X67253920Y-32820500D01*
X67229973Y-32817951D01*
X67228307Y-32817872D01*
X67218124Y-32815680D01*
X67207782Y-32816904D01*
X67207779Y-32816904D01*
X67184787Y-32819626D01*
X67178846Y-32819977D01*
X67178854Y-32820072D01*
X67173674Y-32820500D01*
X67168476Y-32820500D01*
X67163354Y-32821353D01*
X67163349Y-32821353D01*
X67149427Y-32823671D01*
X67143550Y-32824508D01*
X67137049Y-32825277D01*
X67102997Y-32829307D01*
X67102995Y-32829308D01*
X67092659Y-32830531D01*
X67084410Y-32834492D01*
X67075374Y-32835996D01*
X67066205Y-32840943D01*
X67066203Y-32840944D01*
X67030240Y-32860348D01*
X67024951Y-32863043D01*
X67011936Y-32869293D01*
X66978768Y-32885220D01*
X66974492Y-32888814D01*
X66972552Y-32890754D01*
X66970641Y-32892507D01*
X66970551Y-32892556D01*
X66970439Y-32892433D01*
X66969904Y-32892905D01*
X66964186Y-32895990D01*
X66957119Y-32903635D01*
X66927584Y-32935586D01*
X66924154Y-32939152D01*
X61379711Y-38483595D01*
X61317399Y-38517621D01*
X61290616Y-38520500D01*
X61266285Y-38520500D01*
X61198164Y-38500498D01*
X61151671Y-38446842D01*
X61140285Y-38394500D01*
X61140285Y-38324934D01*
X61125520Y-38250699D01*
X61069270Y-38166516D01*
X60985087Y-38110266D01*
X60910853Y-38095500D01*
X59885952Y-38095500D01*
X58860720Y-38095501D01*
X58824968Y-38102612D01*
X58798660Y-38107844D01*
X58798658Y-38107845D01*
X58786485Y-38110266D01*
X58776165Y-38117161D01*
X58776164Y-38117162D01*
X58741783Y-38140135D01*
X58702302Y-38166516D01*
X58646052Y-38250699D01*
X58631286Y-38324933D01*
X58631287Y-39475066D01*
X58637823Y-39507925D01*
X58643583Y-39536886D01*
X58646052Y-39549301D01*
X58702302Y-39633484D01*
X58712618Y-39640377D01*
X58719890Y-39645236D01*
X58765416Y-39699714D01*
X58774263Y-39770157D01*
X58743621Y-39834200D01*
X58719890Y-39854764D01*
X58702302Y-39866516D01*
X58646052Y-39950699D01*
X58631286Y-40024933D01*
X58631287Y-41175066D01*
X58638398Y-41210818D01*
X58642417Y-41231023D01*
X58646052Y-41249301D01*
X58702302Y-41333484D01*
X58712618Y-41340377D01*
X58719890Y-41345236D01*
X58765416Y-41399714D01*
X58774263Y-41470157D01*
X58743621Y-41534200D01*
X58719890Y-41554764D01*
X58702302Y-41566516D01*
X58646052Y-41650699D01*
X58631286Y-41724933D01*
X58631287Y-42875066D01*
X58634121Y-42889314D01*
X58643592Y-42936931D01*
X58646052Y-42949301D01*
X58702302Y-43033484D01*
X58786485Y-43089734D01*
X58860719Y-43104500D01*
X59355286Y-43104500D01*
X59423407Y-43124502D01*
X59469900Y-43178158D01*
X59481286Y-43230500D01*
X59481286Y-46838839D01*
X59461284Y-46906960D01*
X59444380Y-46927936D01*
X59413718Y-46958597D01*
X59351405Y-46992621D01*
X59324624Y-46995500D01*
X53046947Y-46995500D01*
X52978826Y-46975498D01*
X52957852Y-46958595D01*
X52527191Y-46527934D01*
X52493165Y-46465622D01*
X52490286Y-46438839D01*
X52490286Y-43230499D01*
X52510288Y-43162378D01*
X52563944Y-43115885D01*
X52616286Y-43104499D01*
X53010852Y-43104499D01*
X53046604Y-43097388D01*
X53072912Y-43092156D01*
X53072914Y-43092155D01*
X53085087Y-43089734D01*
X53095407Y-43082839D01*
X53095408Y-43082838D01*
X53158954Y-43040377D01*
X53169270Y-43033484D01*
X53225520Y-42949301D01*
X53240286Y-42875067D01*
X53240286Y-42868828D01*
X53831787Y-42868828D01*
X53832995Y-42881088D01*
X53844101Y-42936931D01*
X53853419Y-42959427D01*
X53895769Y-43022808D01*
X53912978Y-43040017D01*
X53976361Y-43082368D01*
X53998852Y-43091684D01*
X54054701Y-43102793D01*
X54066956Y-43104000D01*
X54813671Y-43104000D01*
X54828910Y-43099525D01*
X54830115Y-43098135D01*
X54831786Y-43090452D01*
X54831786Y-43085884D01*
X55339786Y-43085884D01*
X55344261Y-43101123D01*
X55345651Y-43102328D01*
X55353334Y-43103999D01*
X56104614Y-43103999D01*
X56116874Y-43102791D01*
X56172717Y-43091685D01*
X56195213Y-43082367D01*
X56258594Y-43040017D01*
X56275803Y-43022808D01*
X56318154Y-42959425D01*
X56327470Y-42936934D01*
X56338579Y-42881085D01*
X56339786Y-42868830D01*
X56339786Y-42572115D01*
X56335311Y-42556876D01*
X56333921Y-42555671D01*
X56326238Y-42554000D01*
X55357901Y-42554000D01*
X55342662Y-42558475D01*
X55341457Y-42559865D01*
X55339786Y-42567548D01*
X55339786Y-43085884D01*
X54831786Y-43085884D01*
X54831786Y-42572115D01*
X54827311Y-42556876D01*
X54825921Y-42555671D01*
X54818238Y-42554000D01*
X53849902Y-42554000D01*
X53834663Y-42558475D01*
X53833458Y-42559865D01*
X53831787Y-42567548D01*
X53831787Y-42868828D01*
X53240286Y-42868828D01*
X53240285Y-41724934D01*
X53233174Y-41689182D01*
X53227942Y-41662874D01*
X53227941Y-41662872D01*
X53225520Y-41650699D01*
X53169270Y-41566516D01*
X53151682Y-41554764D01*
X53106156Y-41500286D01*
X53097309Y-41429843D01*
X53127951Y-41365800D01*
X53151682Y-41345236D01*
X53158954Y-41340377D01*
X53169270Y-41333484D01*
X53225520Y-41249301D01*
X53240286Y-41175067D01*
X53240286Y-41105500D01*
X53260288Y-41037379D01*
X53313944Y-40990886D01*
X53366286Y-40979500D01*
X53705287Y-40979500D01*
X53773408Y-40999502D01*
X53819901Y-41053158D01*
X53831287Y-41105500D01*
X53831287Y-41175066D01*
X53838398Y-41210818D01*
X53842417Y-41231023D01*
X53846052Y-41249301D01*
X53902302Y-41333484D01*
X53920338Y-41345536D01*
X53965865Y-41400011D01*
X53974714Y-41470454D01*
X53944073Y-41534498D01*
X53920339Y-41555064D01*
X53912979Y-41559982D01*
X53895769Y-41577192D01*
X53853418Y-41640575D01*
X53844102Y-41663066D01*
X53832993Y-41718915D01*
X53831786Y-41731170D01*
X53831786Y-42027885D01*
X53836261Y-42043124D01*
X53837651Y-42044329D01*
X53845334Y-42046000D01*
X56321670Y-42046000D01*
X56336909Y-42041525D01*
X56338114Y-42040135D01*
X56339785Y-42032452D01*
X56339785Y-41731172D01*
X56338577Y-41718912D01*
X56327471Y-41663069D01*
X56318153Y-41640573D01*
X56275803Y-41577192D01*
X56258593Y-41559982D01*
X56251233Y-41555064D01*
X56205706Y-41500587D01*
X56196859Y-41430144D01*
X56227500Y-41366100D01*
X56251231Y-41345537D01*
X56269270Y-41333484D01*
X56325520Y-41249301D01*
X56340286Y-41175067D01*
X56340285Y-40024934D01*
X56325520Y-39950699D01*
X56269270Y-39866516D01*
X56251682Y-39854764D01*
X56206156Y-39800286D01*
X56197309Y-39729843D01*
X56227951Y-39665800D01*
X56251682Y-39645236D01*
X56258954Y-39640377D01*
X56269270Y-39633484D01*
X56325520Y-39549301D01*
X56340286Y-39475067D01*
X56340285Y-38324934D01*
X56325520Y-38250699D01*
X56269270Y-38166516D01*
X56185087Y-38110266D01*
X56110853Y-38095500D01*
X55085952Y-38095500D01*
X54060720Y-38095501D01*
X54024968Y-38102612D01*
X53998660Y-38107844D01*
X53998658Y-38107845D01*
X53986485Y-38110266D01*
X53976165Y-38117161D01*
X53976164Y-38117162D01*
X53941783Y-38140135D01*
X53902302Y-38166516D01*
X53846052Y-38250699D01*
X53831286Y-38324933D01*
X53831286Y-38394500D01*
X53811284Y-38462621D01*
X53757628Y-38509114D01*
X53705286Y-38520500D01*
X53366285Y-38520500D01*
X53298164Y-38500498D01*
X53251671Y-38446842D01*
X53240285Y-38394500D01*
X53240285Y-38324934D01*
X53225520Y-38250699D01*
X53169270Y-38166516D01*
X53085087Y-38110266D01*
X53010853Y-38095500D01*
X51985952Y-38095500D01*
X50960720Y-38095501D01*
X50924968Y-38102612D01*
X50898660Y-38107844D01*
X50898658Y-38107845D01*
X50886485Y-38110266D01*
X50876165Y-38117161D01*
X50876164Y-38117162D01*
X50841783Y-38140135D01*
X50802302Y-38166516D01*
X50746052Y-38250699D01*
X50731286Y-38324933D01*
X50731287Y-39475066D01*
X50737823Y-39507925D01*
X50743583Y-39536886D01*
X50746052Y-39549301D01*
X50802302Y-39633484D01*
X50812618Y-39640377D01*
X50819890Y-39645236D01*
X50865416Y-39699714D01*
X50874263Y-39770157D01*
X50843621Y-39834200D01*
X50819890Y-39854764D01*
X50802302Y-39866516D01*
X50746052Y-39950699D01*
X50731286Y-40024933D01*
X50731287Y-41175066D01*
X50738398Y-41210818D01*
X50742417Y-41231023D01*
X50746052Y-41249301D01*
X50802302Y-41333484D01*
X50812618Y-41340377D01*
X50819890Y-41345236D01*
X50865416Y-41399714D01*
X50874263Y-41470157D01*
X50843621Y-41534200D01*
X50819890Y-41554764D01*
X50802302Y-41566516D01*
X50746052Y-41650699D01*
X50731286Y-41724933D01*
X50731287Y-42875066D01*
X50734121Y-42889314D01*
X50743592Y-42936931D01*
X50746052Y-42949301D01*
X50802302Y-43033484D01*
X50886485Y-43089734D01*
X50960719Y-43104500D01*
X51355286Y-43104500D01*
X51423407Y-43124502D01*
X51469900Y-43178158D01*
X51481286Y-43230500D01*
X51481286Y-46438839D01*
X51461284Y-46506960D01*
X51444381Y-46527934D01*
X51013720Y-46958595D01*
X50951408Y-46992621D01*
X50924625Y-46995500D01*
X44946947Y-46995500D01*
X44878826Y-46975498D01*
X44857851Y-46958595D01*
X44527190Y-46627933D01*
X44493165Y-46565621D01*
X44490286Y-46538838D01*
X44490286Y-43230499D01*
X44510288Y-43162378D01*
X44563944Y-43115885D01*
X44616286Y-43104499D01*
X45010852Y-43104499D01*
X45046604Y-43097388D01*
X45072912Y-43092156D01*
X45072914Y-43092155D01*
X45085087Y-43089734D01*
X45095407Y-43082839D01*
X45095408Y-43082838D01*
X45158954Y-43040377D01*
X45169270Y-43033484D01*
X45225520Y-42949301D01*
X45240286Y-42875067D01*
X45240286Y-42868828D01*
X45931787Y-42868828D01*
X45932995Y-42881088D01*
X45944101Y-42936931D01*
X45953419Y-42959427D01*
X45995769Y-43022808D01*
X46012978Y-43040017D01*
X46076361Y-43082368D01*
X46098852Y-43091684D01*
X46154701Y-43102793D01*
X46166956Y-43104000D01*
X46913671Y-43104000D01*
X46928910Y-43099525D01*
X46930115Y-43098135D01*
X46931786Y-43090452D01*
X46931786Y-43085884D01*
X47439786Y-43085884D01*
X47444261Y-43101123D01*
X47445651Y-43102328D01*
X47453334Y-43103999D01*
X48204614Y-43103999D01*
X48216874Y-43102791D01*
X48272717Y-43091685D01*
X48295213Y-43082367D01*
X48358594Y-43040017D01*
X48375803Y-43022808D01*
X48418154Y-42959425D01*
X48427470Y-42936934D01*
X48438579Y-42881085D01*
X48439786Y-42868830D01*
X48439786Y-42572115D01*
X48435311Y-42556876D01*
X48433921Y-42555671D01*
X48426238Y-42554000D01*
X47457901Y-42554000D01*
X47442662Y-42558475D01*
X47441457Y-42559865D01*
X47439786Y-42567548D01*
X47439786Y-43085884D01*
X46931786Y-43085884D01*
X46931786Y-42572115D01*
X46927311Y-42556876D01*
X46925921Y-42555671D01*
X46918238Y-42554000D01*
X45949902Y-42554000D01*
X45934663Y-42558475D01*
X45933458Y-42559865D01*
X45931787Y-42567548D01*
X45931787Y-42868828D01*
X45240286Y-42868828D01*
X45240285Y-41724934D01*
X45233174Y-41689182D01*
X45227942Y-41662874D01*
X45227941Y-41662872D01*
X45225520Y-41650699D01*
X45169270Y-41566516D01*
X45151682Y-41554764D01*
X45106156Y-41500286D01*
X45097309Y-41429843D01*
X45127951Y-41365800D01*
X45151682Y-41345236D01*
X45158954Y-41340377D01*
X45169270Y-41333484D01*
X45225520Y-41249301D01*
X45240286Y-41175067D01*
X45240286Y-41105500D01*
X45260288Y-41037379D01*
X45313944Y-40990886D01*
X45366286Y-40979500D01*
X45805287Y-40979500D01*
X45873408Y-40999502D01*
X45919901Y-41053158D01*
X45931287Y-41105500D01*
X45931287Y-41175066D01*
X45938398Y-41210818D01*
X45942417Y-41231023D01*
X45946052Y-41249301D01*
X46002302Y-41333484D01*
X46020338Y-41345536D01*
X46065865Y-41400011D01*
X46074714Y-41470454D01*
X46044073Y-41534498D01*
X46020339Y-41555064D01*
X46012979Y-41559982D01*
X45995769Y-41577192D01*
X45953418Y-41640575D01*
X45944102Y-41663066D01*
X45932993Y-41718915D01*
X45931786Y-41731170D01*
X45931786Y-42027885D01*
X45936261Y-42043124D01*
X45937651Y-42044329D01*
X45945334Y-42046000D01*
X48421670Y-42046000D01*
X48436909Y-42041525D01*
X48438114Y-42040135D01*
X48439785Y-42032452D01*
X48439785Y-41731172D01*
X48438577Y-41718912D01*
X48427471Y-41663069D01*
X48418153Y-41640573D01*
X48375803Y-41577192D01*
X48358593Y-41559982D01*
X48351233Y-41555064D01*
X48305706Y-41500587D01*
X48296859Y-41430144D01*
X48327500Y-41366100D01*
X48351231Y-41345537D01*
X48369270Y-41333484D01*
X48425520Y-41249301D01*
X48440286Y-41175067D01*
X48440285Y-40024934D01*
X48425520Y-39950699D01*
X48369270Y-39866516D01*
X48351682Y-39854764D01*
X48306156Y-39800286D01*
X48297309Y-39729843D01*
X48327951Y-39665800D01*
X48351682Y-39645236D01*
X48358954Y-39640377D01*
X48369270Y-39633484D01*
X48425520Y-39549301D01*
X48440286Y-39475067D01*
X48440285Y-38324934D01*
X48425520Y-38250699D01*
X48369270Y-38166516D01*
X48285087Y-38110266D01*
X48210853Y-38095500D01*
X47185952Y-38095500D01*
X46160720Y-38095501D01*
X46124968Y-38102612D01*
X46098660Y-38107844D01*
X46098658Y-38107845D01*
X46086485Y-38110266D01*
X46076165Y-38117161D01*
X46076164Y-38117162D01*
X46041783Y-38140135D01*
X46002302Y-38166516D01*
X45946052Y-38250699D01*
X45931286Y-38324933D01*
X45931286Y-38394500D01*
X45911284Y-38462621D01*
X45857628Y-38509114D01*
X45805286Y-38520500D01*
X45366285Y-38520500D01*
X45298164Y-38500498D01*
X45251671Y-38446842D01*
X45240285Y-38394500D01*
X45240285Y-38324934D01*
X45225520Y-38250699D01*
X45169270Y-38166516D01*
X45085087Y-38110266D01*
X45010853Y-38095500D01*
X43985952Y-38095500D01*
X42960720Y-38095501D01*
X42924968Y-38102612D01*
X42898660Y-38107844D01*
X42898658Y-38107845D01*
X42886485Y-38110266D01*
X42876165Y-38117161D01*
X42876164Y-38117162D01*
X42841783Y-38140135D01*
X42802302Y-38166516D01*
X42746052Y-38250699D01*
X42731286Y-38324933D01*
X42731287Y-39475066D01*
X42737823Y-39507925D01*
X42743583Y-39536886D01*
X42746052Y-39549301D01*
X42802302Y-39633484D01*
X42812618Y-39640377D01*
X42819890Y-39645236D01*
X42865416Y-39699714D01*
X42874263Y-39770157D01*
X42843621Y-39834200D01*
X42819890Y-39854764D01*
X42802302Y-39866516D01*
X42746052Y-39950699D01*
X42731286Y-40024933D01*
X42731287Y-41175066D01*
X42738398Y-41210818D01*
X42742417Y-41231023D01*
X42746052Y-41249301D01*
X42802302Y-41333484D01*
X42812618Y-41340377D01*
X42819890Y-41345236D01*
X42865416Y-41399714D01*
X42874263Y-41470157D01*
X42843621Y-41534200D01*
X42819890Y-41554764D01*
X42802302Y-41566516D01*
X42746052Y-41650699D01*
X42731286Y-41724933D01*
X42731287Y-42875066D01*
X42734121Y-42889314D01*
X42743592Y-42936931D01*
X42746052Y-42949301D01*
X42802302Y-43033484D01*
X42886485Y-43089734D01*
X42960719Y-43104500D01*
X43355286Y-43104500D01*
X43423407Y-43124502D01*
X43469900Y-43178158D01*
X43481286Y-43230500D01*
X43481286Y-46538839D01*
X43461284Y-46606960D01*
X43444381Y-46627935D01*
X43113719Y-46958596D01*
X43051407Y-46992621D01*
X43024624Y-46995500D01*
X40265750Y-46995500D01*
X40197629Y-46975498D01*
X40151136Y-46921842D01*
X40140357Y-46881853D01*
X40140285Y-46881120D01*
X40140285Y-46874934D01*
X40130044Y-46823445D01*
X40127942Y-46812874D01*
X40127941Y-46812872D01*
X40125520Y-46800699D01*
X40118563Y-46790286D01*
X40076163Y-46726832D01*
X40069270Y-46716516D01*
X39985087Y-46660266D01*
X39910853Y-46645500D01*
X39435863Y-46645500D01*
X38960720Y-46645501D01*
X38924968Y-46652612D01*
X38898660Y-46657844D01*
X38898658Y-46657845D01*
X38886485Y-46660266D01*
X38876165Y-46667161D01*
X38876164Y-46667162D01*
X38843340Y-46689095D01*
X38802302Y-46716516D01*
X38746052Y-46800699D01*
X38731286Y-46874933D01*
X36840285Y-46874933D01*
X36830044Y-46823445D01*
X36827942Y-46812874D01*
X36827941Y-46812872D01*
X36825520Y-46800699D01*
X36818563Y-46790286D01*
X36776163Y-46726832D01*
X36769270Y-46716516D01*
X36685087Y-46660266D01*
X36610853Y-46645500D01*
X36135863Y-46645500D01*
X35660720Y-46645501D01*
X35624968Y-46652612D01*
X35598660Y-46657844D01*
X35598658Y-46657845D01*
X35586485Y-46660266D01*
X35576165Y-46667161D01*
X35576164Y-46667162D01*
X35543340Y-46689095D01*
X35502302Y-46716516D01*
X35446052Y-46800699D01*
X35431286Y-46874933D01*
X35431286Y-46881120D01*
X35431214Y-46881851D01*
X35404631Y-46947683D01*
X35346677Y-46988692D01*
X35305821Y-46995500D01*
X34370624Y-46995500D01*
X34358619Y-46994159D01*
X34358579Y-46994655D01*
X34349632Y-46993935D01*
X34340876Y-46991954D01*
X34297339Y-46994655D01*
X34287619Y-46995258D01*
X34279817Y-46995500D01*
X34263774Y-46995500D01*
X34259344Y-46996135D01*
X34259337Y-46996135D01*
X34253536Y-46996966D01*
X34243481Y-46997996D01*
X34205601Y-47000346D01*
X34205599Y-47000346D01*
X34196642Y-47000902D01*
X34188201Y-47003949D01*
X34184923Y-47004628D01*
X34169055Y-47008584D01*
X34165831Y-47009527D01*
X34156948Y-47010799D01*
X34148779Y-47014513D01*
X34148773Y-47014515D01*
X34114221Y-47030225D01*
X34104853Y-47034039D01*
X34060716Y-47049972D01*
X34053466Y-47055269D01*
X34050499Y-47056846D01*
X34036386Y-47065093D01*
X34033563Y-47066898D01*
X34025395Y-47070612D01*
X34018598Y-47076469D01*
X34018596Y-47076470D01*
X33989847Y-47101243D01*
X33981936Y-47107525D01*
X33971056Y-47115473D01*
X33960194Y-47126335D01*
X33953348Y-47132693D01*
X33915918Y-47164944D01*
X33911034Y-47172479D01*
X33905301Y-47179051D01*
X33896074Y-47190455D01*
X33027934Y-48058595D01*
X32965622Y-48092621D01*
X32938839Y-48095500D01*
X29061161Y-48095500D01*
X28993040Y-48075498D01*
X28972066Y-48058595D01*
X28441405Y-47527934D01*
X28407379Y-47465622D01*
X28404500Y-47438839D01*
X28404500Y-45861161D01*
X28424502Y-45793040D01*
X28441405Y-45772066D01*
X28572066Y-45641405D01*
X28634378Y-45607379D01*
X28661161Y-45604500D01*
X28791447Y-45604500D01*
X28859568Y-45624502D01*
X28906061Y-45678158D01*
X28916165Y-45748432D01*
X28903713Y-45787704D01*
X28885502Y-45823445D01*
X28870500Y-45918166D01*
X28870500Y-46281834D01*
X28885502Y-46376555D01*
X28943674Y-46490723D01*
X28963856Y-46510905D01*
X28997882Y-46573217D01*
X28992817Y-46644032D01*
X28963856Y-46689095D01*
X28943674Y-46709277D01*
X28885502Y-46823445D01*
X28870500Y-46918166D01*
X28870500Y-47281834D01*
X28885502Y-47376555D01*
X28943674Y-47490723D01*
X29034277Y-47581326D01*
X29148445Y-47639498D01*
X29243166Y-47654500D01*
X30556834Y-47654500D01*
X30651555Y-47639498D01*
X30765723Y-47581326D01*
X30856326Y-47490723D01*
X30914498Y-47376555D01*
X30916643Y-47363011D01*
X30918629Y-47358821D01*
X30919114Y-47357329D01*
X30919307Y-47357392D01*
X30947055Y-47298858D01*
X30951997Y-47293627D01*
X35376796Y-42868828D01*
X37931787Y-42868828D01*
X37932995Y-42881088D01*
X37944101Y-42936931D01*
X37953419Y-42959427D01*
X37995769Y-43022808D01*
X38012978Y-43040017D01*
X38076361Y-43082368D01*
X38098852Y-43091684D01*
X38154701Y-43102793D01*
X38166956Y-43104000D01*
X38913671Y-43104000D01*
X38928910Y-43099525D01*
X38930115Y-43098135D01*
X38931786Y-43090452D01*
X38931786Y-43085884D01*
X39439786Y-43085884D01*
X39444261Y-43101123D01*
X39445651Y-43102328D01*
X39453334Y-43103999D01*
X40204614Y-43103999D01*
X40216874Y-43102791D01*
X40272717Y-43091685D01*
X40295213Y-43082367D01*
X40358594Y-43040017D01*
X40375803Y-43022808D01*
X40418154Y-42959425D01*
X40427470Y-42936934D01*
X40438579Y-42881085D01*
X40439786Y-42868830D01*
X40439786Y-42572115D01*
X40435311Y-42556876D01*
X40433921Y-42555671D01*
X40426238Y-42554000D01*
X39457901Y-42554000D01*
X39442662Y-42558475D01*
X39441457Y-42559865D01*
X39439786Y-42567548D01*
X39439786Y-43085884D01*
X38931786Y-43085884D01*
X38931786Y-42572115D01*
X38927311Y-42556876D01*
X38925921Y-42555671D01*
X38918238Y-42554000D01*
X37949902Y-42554000D01*
X37934663Y-42558475D01*
X37933458Y-42559865D01*
X37931787Y-42567548D01*
X37931787Y-42868828D01*
X35376796Y-42868828D01*
X37229219Y-41016405D01*
X37291531Y-40982379D01*
X37318314Y-40979500D01*
X37805287Y-40979500D01*
X37873408Y-40999502D01*
X37919901Y-41053158D01*
X37931287Y-41105500D01*
X37931287Y-41175066D01*
X37938398Y-41210818D01*
X37942417Y-41231023D01*
X37946052Y-41249301D01*
X38002302Y-41333484D01*
X38020338Y-41345536D01*
X38065865Y-41400011D01*
X38074714Y-41470454D01*
X38044073Y-41534498D01*
X38020339Y-41555064D01*
X38012979Y-41559982D01*
X37995769Y-41577192D01*
X37953418Y-41640575D01*
X37944102Y-41663066D01*
X37932993Y-41718915D01*
X37931786Y-41731170D01*
X37931786Y-42027885D01*
X37936261Y-42043124D01*
X37937651Y-42044329D01*
X37945334Y-42046000D01*
X40421670Y-42046000D01*
X40436909Y-42041525D01*
X40438114Y-42040135D01*
X40439785Y-42032452D01*
X40439785Y-41731172D01*
X40438577Y-41718912D01*
X40427471Y-41663069D01*
X40418153Y-41640573D01*
X40375803Y-41577192D01*
X40358593Y-41559982D01*
X40351233Y-41555064D01*
X40305706Y-41500587D01*
X40296859Y-41430144D01*
X40327500Y-41366100D01*
X40351231Y-41345537D01*
X40369270Y-41333484D01*
X40425520Y-41249301D01*
X40440286Y-41175067D01*
X40440285Y-40024934D01*
X40425520Y-39950699D01*
X40369270Y-39866516D01*
X40351682Y-39854764D01*
X40306156Y-39800286D01*
X40297309Y-39729843D01*
X40327951Y-39665800D01*
X40351682Y-39645236D01*
X40358954Y-39640377D01*
X40369270Y-39633484D01*
X40425520Y-39549301D01*
X40440286Y-39475067D01*
X40440285Y-38324934D01*
X40425520Y-38250699D01*
X40369270Y-38166516D01*
X40285087Y-38110266D01*
X40210853Y-38095500D01*
X39185952Y-38095500D01*
X38160720Y-38095501D01*
X38124968Y-38102612D01*
X38098660Y-38107844D01*
X38098658Y-38107845D01*
X38086485Y-38110266D01*
X38076165Y-38117161D01*
X38076164Y-38117162D01*
X38041783Y-38140135D01*
X38002302Y-38166516D01*
X37946052Y-38250699D01*
X37931286Y-38324933D01*
X37931286Y-38390646D01*
X37911284Y-38458767D01*
X37857628Y-38505260D01*
X37817800Y-38512946D01*
X37818124Y-38515679D01*
X37784779Y-38519626D01*
X37778848Y-38519976D01*
X37778856Y-38520072D01*
X37773680Y-38520500D01*
X37768476Y-38520500D01*
X37749412Y-38523673D01*
X37743566Y-38524504D01*
X37732117Y-38525859D01*
X37692659Y-38530530D01*
X37684407Y-38534493D01*
X37675374Y-38535996D01*
X37666205Y-38540943D01*
X37666203Y-38540944D01*
X37630268Y-38560334D01*
X37624976Y-38563031D01*
X37578768Y-38585219D01*
X37574493Y-38588813D01*
X37572568Y-38590738D01*
X37570638Y-38592509D01*
X37570553Y-38592555D01*
X37570441Y-38592432D01*
X37569906Y-38592904D01*
X37564186Y-38595990D01*
X37557119Y-38603635D01*
X37527584Y-38635586D01*
X37524154Y-38639152D01*
X31144595Y-45018711D01*
X31082283Y-45052737D01*
X31011468Y-45047672D01*
X30954632Y-45005125D01*
X30929821Y-44938605D01*
X30929500Y-44929616D01*
X30929500Y-44918166D01*
X30914498Y-44823445D01*
X30856326Y-44709277D01*
X30835791Y-44688742D01*
X30801765Y-44626430D01*
X30806830Y-44555615D01*
X30835788Y-44510554D01*
X30848907Y-44497434D01*
X30860417Y-44481593D01*
X30909516Y-44385231D01*
X30914479Y-44369955D01*
X30912962Y-44358212D01*
X30898988Y-44354000D01*
X28900552Y-44354000D01*
X28887316Y-44357887D01*
X28885625Y-44370273D01*
X28890486Y-44385234D01*
X28904275Y-44412297D01*
X28917379Y-44482074D01*
X28890679Y-44547858D01*
X28832651Y-44588765D01*
X28792008Y-44595500D01*
X28470625Y-44595500D01*
X28458620Y-44594159D01*
X28458580Y-44594655D01*
X28449633Y-44593935D01*
X28440877Y-44591954D01*
X28397339Y-44594655D01*
X28387619Y-44595258D01*
X28379817Y-44595500D01*
X28363774Y-44595500D01*
X28359344Y-44596135D01*
X28359337Y-44596135D01*
X28353536Y-44596966D01*
X28343481Y-44597996D01*
X28305601Y-44600346D01*
X28305599Y-44600346D01*
X28296642Y-44600902D01*
X28288201Y-44603949D01*
X28284923Y-44604628D01*
X28269055Y-44608584D01*
X28265831Y-44609527D01*
X28256948Y-44610799D01*
X28248779Y-44614513D01*
X28248773Y-44614515D01*
X28214221Y-44630225D01*
X28204853Y-44634039D01*
X28160716Y-44649972D01*
X28153466Y-44655269D01*
X28150499Y-44656846D01*
X28136386Y-44665093D01*
X28133563Y-44666898D01*
X28125395Y-44670612D01*
X28118598Y-44676469D01*
X28118596Y-44676470D01*
X28089847Y-44701243D01*
X28081936Y-44707525D01*
X28071056Y-44715473D01*
X28060194Y-44726335D01*
X28053348Y-44732693D01*
X28015918Y-44764944D01*
X28011034Y-44772479D01*
X28005301Y-44779051D01*
X27996074Y-44790455D01*
X27593206Y-45193323D01*
X27583766Y-45200865D01*
X27584089Y-45201245D01*
X27577253Y-45207063D01*
X27569661Y-45211853D01*
X27563719Y-45218581D01*
X27534329Y-45251859D01*
X27528983Y-45257546D01*
X27517649Y-45268880D01*
X27514964Y-45272463D01*
X27514962Y-45272465D01*
X27511447Y-45277155D01*
X27505062Y-45284998D01*
X27473999Y-45320170D01*
X27470186Y-45328292D01*
X27468346Y-45331093D01*
X27459937Y-45345088D01*
X27458315Y-45348051D01*
X27452930Y-45355236D01*
X27449777Y-45363646D01*
X27449776Y-45363648D01*
X27436454Y-45399182D01*
X27432530Y-45408495D01*
X27412583Y-45450982D01*
X27411201Y-45459856D01*
X27410215Y-45463083D01*
X27406075Y-45478866D01*
X27405354Y-45482144D01*
X27402202Y-45490552D01*
X27401537Y-45499503D01*
X27398724Y-45537357D01*
X27397570Y-45547404D01*
X27395500Y-45560697D01*
X27395500Y-45576062D01*
X27395154Y-45585399D01*
X27391493Y-45634667D01*
X24754500Y-45634667D01*
X24754500Y-43830045D01*
X28885521Y-43830045D01*
X28887038Y-43841788D01*
X28901012Y-43846000D01*
X29627885Y-43846000D01*
X29643124Y-43841525D01*
X29644329Y-43840135D01*
X29646000Y-43832452D01*
X29646000Y-43827885D01*
X30154000Y-43827885D01*
X30158475Y-43843124D01*
X30159865Y-43844329D01*
X30167548Y-43846000D01*
X30899448Y-43846000D01*
X30912684Y-43842113D01*
X30914375Y-43829727D01*
X30909514Y-43814766D01*
X30860417Y-43718407D01*
X30848906Y-43702564D01*
X30772436Y-43626094D01*
X30756593Y-43614583D01*
X30660232Y-43565485D01*
X30641608Y-43559433D01*
X30561685Y-43546775D01*
X30551842Y-43546000D01*
X30172115Y-43546000D01*
X30156876Y-43550475D01*
X30155671Y-43551865D01*
X30154000Y-43559548D01*
X30154000Y-43827885D01*
X29646000Y-43827885D01*
X29646000Y-43564116D01*
X29641525Y-43548877D01*
X29640135Y-43547672D01*
X29632452Y-43546001D01*
X29248160Y-43546001D01*
X29238313Y-43546776D01*
X29158393Y-43559433D01*
X29139767Y-43565485D01*
X29043407Y-43614583D01*
X29027564Y-43626094D01*
X28951094Y-43702564D01*
X28939583Y-43718407D01*
X28890484Y-43814769D01*
X28885521Y-43830045D01*
X24754500Y-43830045D01*
X24754500Y-43540744D01*
X24774502Y-43472623D01*
X24828158Y-43426130D01*
X24898432Y-43416026D01*
X24963012Y-43445520D01*
X24981326Y-43465179D01*
X25009571Y-43502866D01*
X25022133Y-43515428D01*
X25123296Y-43591246D01*
X25138882Y-43599778D01*
X25258265Y-43644533D01*
X25273510Y-43648158D01*
X25323892Y-43653631D01*
X25330706Y-43654000D01*
X25752885Y-43654000D01*
X25768124Y-43649525D01*
X25769329Y-43648135D01*
X25771000Y-43640452D01*
X25771000Y-43635884D01*
X26279000Y-43635884D01*
X26283475Y-43651123D01*
X26284865Y-43652328D01*
X26292548Y-43653999D01*
X26719292Y-43653999D01*
X26726110Y-43653630D01*
X26776482Y-43648159D01*
X26791741Y-43644530D01*
X26911118Y-43599778D01*
X26926704Y-43591246D01*
X27027867Y-43515428D01*
X27040428Y-43502867D01*
X27116246Y-43401704D01*
X27124778Y-43386118D01*
X27169533Y-43266735D01*
X27173158Y-43251490D01*
X27178631Y-43201108D01*
X27179000Y-43194294D01*
X27179000Y-43072115D01*
X27174525Y-43056876D01*
X27173135Y-43055671D01*
X27165452Y-43054000D01*
X26297115Y-43054000D01*
X26281876Y-43058475D01*
X26280671Y-43059865D01*
X26279000Y-43067548D01*
X26279000Y-43635884D01*
X25771000Y-43635884D01*
X25771000Y-42527885D01*
X26279000Y-42527885D01*
X26283475Y-42543124D01*
X26284865Y-42544329D01*
X26292548Y-42546000D01*
X27160884Y-42546000D01*
X27176123Y-42541525D01*
X27177328Y-42540135D01*
X27178999Y-42532452D01*
X27178999Y-42405708D01*
X27178630Y-42398890D01*
X27173159Y-42348518D01*
X27169530Y-42333259D01*
X27124778Y-42213882D01*
X27116246Y-42198296D01*
X27040428Y-42097133D01*
X27027867Y-42084572D01*
X26926704Y-42008754D01*
X26911118Y-42000222D01*
X26791735Y-41955467D01*
X26776490Y-41951842D01*
X26726108Y-41946369D01*
X26719294Y-41946000D01*
X26297115Y-41946000D01*
X26281876Y-41950475D01*
X26280671Y-41951865D01*
X26279000Y-41959548D01*
X26279000Y-42527885D01*
X25771000Y-42527885D01*
X25771000Y-41964116D01*
X25766525Y-41948877D01*
X25765135Y-41947672D01*
X25757452Y-41946001D01*
X25330708Y-41946001D01*
X25323890Y-41946370D01*
X25273518Y-41951841D01*
X25258259Y-41955470D01*
X25138882Y-42000222D01*
X25123296Y-42008754D01*
X25022133Y-42084572D01*
X25009571Y-42097134D01*
X24981326Y-42134821D01*
X24924466Y-42177336D01*
X24853648Y-42182361D01*
X24791355Y-42148302D01*
X24757365Y-42085970D01*
X24754500Y-42059256D01*
X24754500Y-35614214D01*
X27140448Y-35614214D01*
X27140718Y-35618333D01*
X27154162Y-35823445D01*
X27160634Y-35922197D01*
X27161436Y-35926230D01*
X27161437Y-35926236D01*
X27220042Y-36220861D01*
X27220848Y-36224911D01*
X27222175Y-36228820D01*
X27222176Y-36228824D01*
X27308080Y-36481890D01*
X27320058Y-36517175D01*
X27339363Y-36556322D01*
X27453468Y-36787703D01*
X27456568Y-36793990D01*
X27628042Y-37050618D01*
X27831545Y-37282669D01*
X28063596Y-37486172D01*
X28067022Y-37488461D01*
X28067027Y-37488465D01*
X28212126Y-37585417D01*
X28320224Y-37657646D01*
X28323923Y-37659470D01*
X28323928Y-37659473D01*
X28461625Y-37727377D01*
X28597039Y-37794156D01*
X28600944Y-37795481D01*
X28600945Y-37795482D01*
X28885390Y-37892038D01*
X28885394Y-37892039D01*
X28889303Y-37893366D01*
X28893347Y-37894170D01*
X28893353Y-37894172D01*
X29187978Y-37952777D01*
X29187984Y-37952778D01*
X29192017Y-37953580D01*
X29196122Y-37953849D01*
X29196129Y-37953850D01*
X29495881Y-37973496D01*
X29500000Y-37973766D01*
X29504119Y-37973496D01*
X29803871Y-37953850D01*
X29803878Y-37953849D01*
X29807983Y-37953580D01*
X29812016Y-37952778D01*
X29812022Y-37952777D01*
X30106647Y-37894172D01*
X30106653Y-37894170D01*
X30110697Y-37893366D01*
X30114606Y-37892039D01*
X30114610Y-37892038D01*
X30399055Y-37795482D01*
X30399056Y-37795481D01*
X30402961Y-37794156D01*
X30538375Y-37727377D01*
X30676072Y-37659473D01*
X30676077Y-37659470D01*
X30679776Y-37657646D01*
X30787874Y-37585417D01*
X30932973Y-37488465D01*
X30932978Y-37488461D01*
X30936404Y-37486172D01*
X31168455Y-37282669D01*
X31371958Y-37050618D01*
X31543432Y-36793990D01*
X31546533Y-36787703D01*
X31660637Y-36556322D01*
X31679942Y-36517175D01*
X31691920Y-36481890D01*
X31777824Y-36228824D01*
X31777825Y-36228820D01*
X31779152Y-36224911D01*
X31779958Y-36220861D01*
X31838563Y-35926236D01*
X31838564Y-35926230D01*
X31839366Y-35922197D01*
X31845839Y-35823445D01*
X31859282Y-35618333D01*
X31859552Y-35614214D01*
X31851458Y-35490723D01*
X31839636Y-35310343D01*
X31839635Y-35310336D01*
X31839366Y-35306231D01*
X31835487Y-35286726D01*
X31779958Y-35007567D01*
X31779956Y-35007561D01*
X31779152Y-35003517D01*
X31750180Y-34918166D01*
X31681268Y-34715159D01*
X31681267Y-34715158D01*
X31679942Y-34711253D01*
X31565654Y-34479500D01*
X31545259Y-34438142D01*
X31545256Y-34438137D01*
X31543432Y-34434438D01*
X31371958Y-34177810D01*
X31168455Y-33945759D01*
X30936404Y-33742256D01*
X30932978Y-33739967D01*
X30932973Y-33739963D01*
X30710402Y-33591246D01*
X30679776Y-33570782D01*
X30676077Y-33568958D01*
X30676072Y-33568955D01*
X30438297Y-33451698D01*
X30402961Y-33434272D01*
X30261104Y-33386118D01*
X30114610Y-33336390D01*
X30114606Y-33336389D01*
X30110697Y-33335062D01*
X30106653Y-33334258D01*
X30106647Y-33334256D01*
X29812022Y-33275651D01*
X29812016Y-33275650D01*
X29807983Y-33274848D01*
X29803878Y-33274579D01*
X29803871Y-33274578D01*
X29504119Y-33254932D01*
X29500000Y-33254662D01*
X29495881Y-33254932D01*
X29196129Y-33274578D01*
X29196122Y-33274579D01*
X29192017Y-33274848D01*
X29187984Y-33275650D01*
X29187978Y-33275651D01*
X28893353Y-33334256D01*
X28893347Y-33334258D01*
X28889303Y-33335062D01*
X28885394Y-33336389D01*
X28885390Y-33336390D01*
X28738896Y-33386118D01*
X28597039Y-33434272D01*
X28561703Y-33451698D01*
X28323928Y-33568955D01*
X28323923Y-33568958D01*
X28320224Y-33570782D01*
X28289598Y-33591246D01*
X28067027Y-33739963D01*
X28067022Y-33739967D01*
X28063596Y-33742256D01*
X27831545Y-33945759D01*
X27628042Y-34177810D01*
X27456568Y-34434438D01*
X27454744Y-34438137D01*
X27454741Y-34438142D01*
X27434346Y-34479500D01*
X27320058Y-34711253D01*
X27318733Y-34715158D01*
X27318732Y-34715159D01*
X27249821Y-34918166D01*
X27220848Y-35003517D01*
X27220044Y-35007561D01*
X27220042Y-35007567D01*
X27164514Y-35286726D01*
X27160634Y-35306231D01*
X27160365Y-35310336D01*
X27160364Y-35310343D01*
X27147630Y-35504632D01*
X27144247Y-35556245D01*
X27140448Y-35614214D01*
X24754500Y-35614214D01*
X24754500Y-32651688D01*
X24756921Y-32627108D01*
X24757065Y-32626384D01*
X24759486Y-32614212D01*
X24757065Y-32602040D01*
X24757065Y-32589633D01*
X24757704Y-32589633D01*
X24757029Y-32578851D01*
X24759379Y-32546000D01*
X24760674Y-32527885D01*
X71821000Y-32527885D01*
X71825475Y-32543124D01*
X71826865Y-32544329D01*
X71834548Y-32546000D01*
X72702885Y-32546000D01*
X72718124Y-32541525D01*
X72719329Y-32540135D01*
X72721000Y-32532452D01*
X72721000Y-31964116D01*
X72716525Y-31948877D01*
X72715135Y-31947672D01*
X72707452Y-31946001D01*
X72280708Y-31946001D01*
X72273890Y-31946370D01*
X72223518Y-31951841D01*
X72208259Y-31955470D01*
X72088882Y-32000222D01*
X72073296Y-32008754D01*
X71972133Y-32084572D01*
X71959572Y-32097133D01*
X71883754Y-32198296D01*
X71875222Y-32213882D01*
X71830467Y-32333265D01*
X71826842Y-32348510D01*
X71821369Y-32398892D01*
X71821000Y-32405706D01*
X71821000Y-32527885D01*
X24760674Y-32527885D01*
X24771622Y-32374789D01*
X24774180Y-32356996D01*
X24779342Y-32333265D01*
X24823288Y-32131245D01*
X24828348Y-32114010D01*
X24909085Y-31897544D01*
X24916553Y-31881193D01*
X25027270Y-31678426D01*
X25036987Y-31663306D01*
X25175434Y-31478361D01*
X25187206Y-31464775D01*
X25350565Y-31301414D01*
X25364152Y-31289641D01*
X25549092Y-31151196D01*
X25564215Y-31141477D01*
X25698087Y-31068377D01*
X25766981Y-31030758D01*
X25783329Y-31023292D01*
X25999797Y-30942553D01*
X26017042Y-30937490D01*
X26242783Y-30888382D01*
X26260570Y-30885825D01*
X26388180Y-30876697D01*
X26464582Y-30871233D01*
X26475417Y-30871910D01*
X26475417Y-30871279D01*
X26487830Y-30871279D01*
X26500000Y-30873700D01*
X26512897Y-30871135D01*
X26537476Y-30868714D01*
X72462524Y-30868714D01*
X72487103Y-30871135D01*
G37*
%TD.AperFunction*%
%TD*%
M02*
